<svg width="120" height="120" viewBox="0 0 120 120" xmlns="http://www.w3.org/2000/svg">
    <!-- Outer Circle -->
    <circle cx="60" cy="60" r="55" fill="none" stroke="#0891b2" stroke-width="2" opacity="0.3"/>
    
    <!-- Academic Cap -->
    <path d="M30 45 L60 35 L90 45 L90 55 L85 57 L85 70 C85 75 75 80 60 80 C45 80 35 75 35 70 L35 57 L30 55 Z" 
          fill="#0891b2" opacity="0.8"/>
    
    <!-- Cap Tassel -->
    <circle cx="85" cy="57" r="3" fill="#0891b2"/>
    <line x1="85" y1="60" x2="88" y2="68" stroke="#0891b2" stroke-width="2"/>
    <circle cx="88" cy="68" r="2" fill="#0891b2"/>
    
    <!-- Brain/AI Symbol -->
    <path d="M45 50 Q50 45 55 50 Q60 45 65 50 Q70 55 65 60 Q60 65 55 60 Q50 65 45 60 Q40 55 45 50" 
          fill="none" stroke="#0891b2" stroke-width="2" opacity="0.6"/>
    
    <!-- Circuit Lines -->
    <line x1="40" y1="65" x2="50" y2="65" stroke="#0891b2" stroke-width="1.5" opacity="0.4"/>
    <line x1="70" y1="65" x2="80" y2="65" stroke="#0891b2" stroke-width="1.5" opacity="0.4"/>
    <circle cx="42" cy="65" r="1.5" fill="#0891b2" opacity="0.4"/>
    <circle cx="78" cy="65" r="1.5" fill="#0891b2" opacity="0.4"/>
    
    <!-- Initials -->
    <text x="60" y="95" text-anchor="middle" fill="#0891b2" font-family="Playfair Display, serif" 
          font-size="16" font-weight="bold">IRK</text>
</svg>